<?xml version="1.0" encoding="UTF-8"?>
<svg id="Calque_2" data-name="Calque 2" xmlns="http://www.w3.org/2000/svg" viewBox="0 0 56.94 26.99">
  <defs>
    <style>
      .cls-1 {
        fill: #1d1d1b;
        letter-spacing: 0em;
      }

      .cls-2 {
        fill: #82368c;
      }

      .cls-3 {
        font-family: Charmonman-Bold, Charmonman;
        font-size: 12px;
        font-weight: 700;
      }
    </style>
  </defs>
  <g id="Calque_1-2" data-name="Calque 1">
    <path class="cls-2" d="M5.99,25.63c-1.03,.01-2.14-.08-2.38,.2-.1,.12-.1,.23-.03,.38,.08,.19,.39,.18,.5,.18,1.77,0,3.54,.26,5.32,.27,.41,0,.89,.02,1.86,.05,1.1,.04,1.64,.05,2.16,.09,1.18,.07,1.48,.14,2.49,.16,.7,.02,1.05,.02,1.26-.02,.22-.04,1.8-.35,2.47-1.7,.3-.6,.22-1,.61-1.29,.24-.18,.46-.17,1.13-.2,1.36-.06,.68-.09,1.49-.09,3.48,0,4.98,.13,4.98,.13,2.82,.23,1.39,.01,7.54,.43,4.7,.32,7.06,.48,7.38,.55,1.73,.36,3.51,.19,5.25,.39,.26,.03,.9,.11,1.59-.25,.17-.09,1.18-.61,1.5-1.91,.24-.98-.02-1.95-.46-2.6-.59-.87-1.45-1.06-1.97-1.19-.89-.2-1.4,0-3.02,.26-.86,.14-1.73,.21-2.59,.34-2.11,.31-5.28,.77-7.29,1.04-.14,.02-2.75,.37-4.51,.55-2.52,.26-6.17,.46-10.84,.16-.17-.01-.32-.13-.39-.3-.1-.25-.25-.54-.47-.84-.52-.71-1.11-1.03-1.48-1.23-.4-.21-.89-.47-1.53-.47-.45,0-.6,.12-1.26,.17-.45,.03-.83,0-1.1-.02-.02,0-.04,0-.06,0-1.7,.09-3.42,.2-5.18,.33-1.71,.13-3.4,.27-5.06,.43-.09,0-.17,.04-.24,.1-.1,.08-.19,.19-.17,.29,.03,.19,.42,.27,.57,.3,.89,.17,7.11-.01,10.37-.12,.26,0,.48,.24,.47,.53h0c0,.29-.2,.51-.45,.52-3.5,.08-7,.16-10.49,.24-.06,0-.12,.02-.17,.04-.2,.1-.49,.28-.47,.46,.02,.21,.45,.33,.6,.37,1.07,.29,7.25,.13,10.58,.03,.26,0,.48,.24,.47,.53v.02c0,.28-.2,.5-.44,.51-3.61,.12-7.22,.23-10.84,.35-.11,0-.21,.05-.29,.13-.07,.08-.13,.17-.11,.25,.07,.5,2.36,.45,5.15,.43,1.43-.01,3.45-.02,5.92,0,.25,0,.45,.23,.46,.52v.03c0,.29-.2,.52-.45,.53l-8.38-.03"/>
    <text class="cls-3" transform="translate(.76 12.7)"><tspan class="cls-2" x="0" y="0">Taza</tspan><tspan class="cls-1" x="25.28" y="0" xml:space="preserve"> food</tspan></text>
  </g>
</svg>